<mxfile host="app.diagrams.net" agent="Mozilla/5.0 (Macintosh; Intel Mac OS X 10_15_7) AppleWebKit/537.36 (KHTML, like Gecko) Chrome/137.0.0.0 Safari/537.36" version="27.2.0">
  <diagram name="第 1 页" id="mKnvXgXuS8pGYyAErCx5">
    <mxGraphModel dx="1234" dy="763" grid="1" gridSize="10" guides="1" tooltips="1" connect="1" arrows="1" fold="1" page="1" pageScale="1" pageWidth="1654" pageHeight="1169" math="0" shadow="0">
      <root>
        <mxCell id="0" />
        <mxCell id="1" parent="0" />
        <mxCell id="3vunZ8997IZsu1qk2e-8-11" style="edgeStyle=orthogonalEdgeStyle;rounded=0;orthogonalLoop=1;jettySize=auto;html=1;exitX=1;exitY=0.5;exitDx=0;exitDy=0;exitPerimeter=0;entryX=0.5;entryY=0;entryDx=0;entryDy=0;curved=1;" parent="1" source="67hWNu62ocXWBOCx5b0s-1" target="67hWNu62ocXWBOCx5b0s-2" edge="1">
          <mxGeometry relative="1" as="geometry" />
        </mxCell>
        <mxCell id="3vunZ8997IZsu1qk2e-8-15" value="binlog" style="edgeLabel;html=1;align=center;verticalAlign=middle;resizable=0;points=[];" parent="3vunZ8997IZsu1qk2e-8-11" vertex="1" connectable="0">
          <mxGeometry x="-0.4903" y="-4" relative="1" as="geometry">
            <mxPoint as="offset" />
          </mxGeometry>
        </mxCell>
        <mxCell id="67hWNu62ocXWBOCx5b0s-1" value="Aurora1" style="strokeWidth=2;html=1;shape=mxgraph.flowchart.database;whiteSpace=wrap;" parent="1" vertex="1">
          <mxGeometry x="450" y="70" width="80" height="80" as="geometry" />
        </mxCell>
        <mxCell id="67hWNu62ocXWBOCx5b0s-11" style="edgeStyle=orthogonalEdgeStyle;rounded=0;orthogonalLoop=1;jettySize=auto;html=1;exitX=0.5;exitY=1;exitDx=0;exitDy=0;" parent="1" source="67hWNu62ocXWBOCx5b0s-2" target="67hWNu62ocXWBOCx5b0s-4" edge="1">
          <mxGeometry relative="1" as="geometry" />
        </mxCell>
        <mxCell id="67hWNu62ocXWBOCx5b0s-38" value="1" style="edgeLabel;html=1;align=center;verticalAlign=middle;resizable=0;points=[];" parent="67hWNu62ocXWBOCx5b0s-11" vertex="1" connectable="0">
          <mxGeometry x="-0.2615" relative="1" as="geometry">
            <mxPoint as="offset" />
          </mxGeometry>
        </mxCell>
        <mxCell id="GPUEPHtTT_EQt9UNUu-h-1" value="1 same sharding datas send to one same kafka topic" style="edgeLabel;html=1;align=center;verticalAlign=middle;resizable=0;points=[];" vertex="1" connectable="0" parent="67hWNu62ocXWBOCx5b0s-11">
          <mxGeometry x="-0.3647" y="2" relative="1" as="geometry">
            <mxPoint as="offset" />
          </mxGeometry>
        </mxCell>
        <mxCell id="67hWNu62ocXWBOCx5b0s-2" value="Raft-maxwell" style="rounded=0;whiteSpace=wrap;html=1;fillColor=#dae8fc;strokeColor=#6c8ebf;shadow=1;fontFamily=Tahoma;" parent="1" vertex="1">
          <mxGeometry x="700" y="190" width="120" height="60" as="geometry" />
        </mxCell>
        <mxCell id="3vunZ8997IZsu1qk2e-8-6" value="2" style="edgeStyle=orthogonalEdgeStyle;rounded=0;orthogonalLoop=1;jettySize=auto;html=1;exitX=0.5;exitY=1;exitDx=0;exitDy=0;" parent="1" source="67hWNu62ocXWBOCx5b0s-4" target="67hWNu62ocXWBOCx5b0s-5" edge="1">
          <mxGeometry relative="1" as="geometry" />
        </mxCell>
        <mxCell id="67hWNu62ocXWBOCx5b0s-4" value="Kafka" style="shape=process;whiteSpace=wrap;html=1;backgroundOutline=1;" parent="1" vertex="1">
          <mxGeometry x="670" y="335" width="180" height="30" as="geometry" />
        </mxCell>
        <mxCell id="67hWNu62ocXWBOCx5b0s-5" value="" style="rounded=0;whiteSpace=wrap;html=1;fillColor=#f8cecc;strokeColor=#b85450;shadow=1;fontFamily=Tahoma;" parent="1" vertex="1">
          <mxGeometry x="630" y="440" width="260" height="110" as="geometry" />
        </mxCell>
        <mxCell id="PuLLqJ9Pljs3W14d_97O-2" value="" style="edgeStyle=orthogonalEdgeStyle;rounded=0;orthogonalLoop=1;jettySize=auto;html=1;" parent="1" source="67hWNu62ocXWBOCx5b0s-7" target="67hWNu62ocXWBOCx5b0s-10" edge="1">
          <mxGeometry relative="1" as="geometry" />
        </mxCell>
        <mxCell id="PuLLqJ9Pljs3W14d_97O-11" value="upsert write to databend" style="edgeLabel;html=1;align=center;verticalAlign=middle;resizable=0;points=[];" parent="PuLLqJ9Pljs3W14d_97O-2" vertex="1" connectable="0">
          <mxGeometry x="-0.2889" y="-3" relative="1" as="geometry">
            <mxPoint as="offset" />
          </mxGeometry>
        </mxCell>
        <mxCell id="67hWNu62ocXWBOCx5b0s-7" value="S3" style="html=1;verticalLabelPosition=bottom;align=center;labelBackgroundColor=#ffffff;verticalAlign=top;strokeWidth=2;strokeColor=#0080F0;shadow=0;dashed=0;shape=mxgraph.ios7.icons.cloud;" parent="1" vertex="1">
          <mxGeometry x="960" y="460" width="60" height="50" as="geometry" />
        </mxCell>
        <mxCell id="67hWNu62ocXWBOCx5b0s-10" value="Databend" style="strokeWidth=2;html=1;shape=mxgraph.flowchart.database;whiteSpace=wrap;" parent="1" vertex="1">
          <mxGeometry x="1240" y="450" width="80" height="80" as="geometry" />
        </mxCell>
        <mxCell id="67hWNu62ocXWBOCx5b0s-51" value="merge sharding data to parquet" style="rounded=0;whiteSpace=wrap;html=1;fillColor=#dae8fc;strokeColor=#6c8ebf;shadow=1;fontFamily=Tahoma;" parent="1" vertex="1">
          <mxGeometry x="673" y="465" width="177" height="50" as="geometry" />
        </mxCell>
        <mxCell id="PuLLqJ9Pljs3W14d_97O-1" style="edgeStyle=orthogonalEdgeStyle;rounded=0;orthogonalLoop=1;jettySize=auto;html=1;exitX=1;exitY=0.5;exitDx=0;exitDy=0;entryX=0;entryY=0.6;entryDx=0;entryDy=0;entryPerimeter=0;" parent="1" source="67hWNu62ocXWBOCx5b0s-51" target="67hWNu62ocXWBOCx5b0s-7" edge="1">
          <mxGeometry relative="1" as="geometry" />
        </mxCell>
        <mxCell id="QNur_ulXSQtvdAvjum8d-6" value="CDC" style="text;html=1;align=center;verticalAlign=middle;whiteSpace=wrap;rounded=0;" parent="1" vertex="1">
          <mxGeometry x="630" y="440" width="60" height="30" as="geometry" />
        </mxCell>
        <mxCell id="3vunZ8997IZsu1qk2e-8-12" style="edgeStyle=orthogonalEdgeStyle;rounded=0;orthogonalLoop=1;jettySize=auto;html=1;exitX=1;exitY=0.5;exitDx=0;exitDy=0;exitPerimeter=0;entryX=0;entryY=0.5;entryDx=0;entryDy=0;curved=1;" parent="1" source="3vunZ8997IZsu1qk2e-8-1" target="67hWNu62ocXWBOCx5b0s-2" edge="1">
          <mxGeometry relative="1" as="geometry" />
        </mxCell>
        <mxCell id="3vunZ8997IZsu1qk2e-8-16" value="&lt;span style=&quot;color: rgba(0, 0, 0, 0); font-family: monospace; font-size: 0px; text-align: start; background-color: rgb(236, 236, 236);&quot;&gt;%3CmxGraphModel%3E%3Croot%3E%3CmxCell%20id%3D%220%22%2F%3E%3CmxCell%20id%3D%221%22%20parent%3D%220%22%2F%3E%3CmxCell%20id%3D%222%22%20value%3D%22binlog%22%20style%3D%22edgeLabel%3Bhtml%3D1%3Balign%3Dcenter%3BverticalAlign%3Dmiddle%3Bresizable%3D0%3Bpoints%3D%5B%5D%3B%22%20vertex%3D%221%22%20connectable%3D%220%22%20parent%3D%221%22%3E%3CmxGeometry%20x%3D%22609%22%20y%3D%22114%22%20as%3D%22geometry%22%2F%3E%3C%2FmxCell%3E%3C%2Froot%3E%3C%2FmxGraphModel%3E&lt;/span&gt;" style="edgeLabel;html=1;align=center;verticalAlign=middle;resizable=0;points=[];" parent="3vunZ8997IZsu1qk2e-8-12" vertex="1" connectable="0">
          <mxGeometry x="-0.0706" y="-2" relative="1" as="geometry">
            <mxPoint as="offset" />
          </mxGeometry>
        </mxCell>
        <mxCell id="3vunZ8997IZsu1qk2e-8-17" value="binlog" style="edgeLabel;html=1;align=center;verticalAlign=middle;resizable=0;points=[];" parent="3vunZ8997IZsu1qk2e-8-12" vertex="1" connectable="0">
          <mxGeometry x="-0.2471" y="3" relative="1" as="geometry">
            <mxPoint as="offset" />
          </mxGeometry>
        </mxCell>
        <mxCell id="3vunZ8997IZsu1qk2e-8-1" value="Aurora2" style="strokeWidth=2;html=1;shape=mxgraph.flowchart.database;whiteSpace=wrap;" parent="1" vertex="1">
          <mxGeometry x="450" y="180" width="80" height="80" as="geometry" />
        </mxCell>
        <mxCell id="3vunZ8997IZsu1qk2e-8-2" value="......." style="text;html=1;align=center;verticalAlign=middle;whiteSpace=wrap;rounded=0;" parent="1" vertex="1">
          <mxGeometry x="460" y="270" width="60" height="30" as="geometry" />
        </mxCell>
        <mxCell id="3vunZ8997IZsu1qk2e-8-14" style="edgeStyle=orthogonalEdgeStyle;rounded=0;orthogonalLoop=1;jettySize=auto;html=1;exitX=1;exitY=0.5;exitDx=0;exitDy=0;exitPerimeter=0;curved=1;" parent="1" source="3vunZ8997IZsu1qk2e-8-4" edge="1">
          <mxGeometry relative="1" as="geometry">
            <mxPoint x="700" y="220" as="targetPoint" />
            <Array as="points">
              <mxPoint x="701" y="365" />
            </Array>
          </mxGeometry>
        </mxCell>
        <mxCell id="3vunZ8997IZsu1qk2e-8-18" value="binlog" style="edgeLabel;html=1;align=center;verticalAlign=middle;resizable=0;points=[];" parent="3vunZ8997IZsu1qk2e-8-14" vertex="1" connectable="0">
          <mxGeometry x="-0.538" y="11" relative="1" as="geometry">
            <mxPoint as="offset" />
          </mxGeometry>
        </mxCell>
        <mxCell id="3vunZ8997IZsu1qk2e-8-4" value="Aurora n" style="strokeWidth=2;html=1;shape=mxgraph.flowchart.database;whiteSpace=wrap;" parent="1" vertex="1">
          <mxGeometry x="450" y="325" width="80" height="80" as="geometry" />
        </mxCell>
      </root>
    </mxGraphModel>
  </diagram>
</mxfile>
